<svg width="30" height="30" viewBox="0 0 30 30" fill="none" xmlns="http://www.w3.org/2000/svg">
<path d="M27.4823 5.92438L15.2948 0.299377C15.108 0.213318 14.892 0.213318 14.7052 0.299377L2.5177 5.92438C2.26868 6.03882 2.10938 6.28784 2.10938 6.5625V23.4375C2.10938 23.7122 2.26868 23.9612 2.5177 24.0756L14.7052 29.7006C14.7986 29.7437 14.8993 29.7656 15 29.7656C15.1007 29.7656 15.2014 29.7437 15.2948 29.7006L27.4823 24.0756C27.7313 23.9612 27.8906 23.7122 27.8906 23.4375V6.5625C27.8906 6.28784 27.7313 6.03882 27.4823 5.92438ZM15 1.71204L25.5101 6.56239L15 11.413L4.48986 6.56239L15 1.71204ZM3.51562 7.66125L14.2969 12.6371V27.9635L3.51562 22.988V7.66125ZM15.7031 27.9635V12.6371L26.4844 7.66125V22.988L15.7031 27.9635Z" fill="black"/>
<path d="M5.85938 22.7344C6.2477 22.7344 6.5625 22.4196 6.5625 22.0312C6.5625 21.6429 6.2477 21.3281 5.85938 21.3281C5.47105 21.3281 5.15625 21.6429 5.15625 22.0312C5.15625 22.4196 5.47105 22.7344 5.85938 22.7344Z" fill="black"/>
<path d="M8.90625 21.3281C9.29458 21.3281 9.60938 21.0133 9.60938 20.625C9.60938 20.2367 9.29458 19.9219 8.90625 19.9219C8.51792 19.9219 8.20312 20.2367 8.20312 20.625C8.20312 21.0133 8.51792 21.3281 8.90625 21.3281Z" fill="black"/>
<path d="M11.9531 19.9219C12.3415 19.9219 12.6562 19.6071 12.6562 19.2188C12.6562 18.8304 12.3415 18.5156 11.9531 18.5156C11.5648 18.5156 11.25 18.8304 11.25 19.2188C11.25 19.6071 11.5648 19.9219 11.9531 19.9219Z" fill="black"/>
<path d="M18.0469 19.9219C18.4352 19.9219 18.75 19.6071 18.75 19.2188C18.75 18.8304 18.4352 18.5156 18.0469 18.5156C17.6585 18.5156 17.3438 18.8304 17.3438 19.2188C17.3438 19.6071 17.6585 19.9219 18.0469 19.9219Z" fill="black"/>
<path d="M21.0938 21.3431C21.4821 21.3431 21.7969 21.0283 21.7969 20.64C21.7969 20.2517 21.4821 19.9369 21.0938 19.9369C20.7054 19.9369 20.3906 20.2517 20.3906 20.64C20.3906 21.0283 20.7054 21.3431 21.0938 21.3431Z" fill="black"/>
<path d="M24.1406 22.7494C24.529 22.7494 24.8438 22.4346 24.8438 22.0462C24.8438 21.6579 24.529 21.3431 24.1406 21.3431C23.7523 21.3431 23.4375 21.6579 23.4375 22.0462C23.4375 22.4346 23.7523 22.7494 24.1406 22.7494Z" fill="black"/>
</svg>
