<svg width="169" height="56" viewBox="0 0 169 56" fill="none" xmlns="http://www.w3.org/2000/svg">
<g clip-path="url(#clip0_281_67)">
<path d="M6.20189 11.1232L1.68166 14.5472C0.72071 15.2768 0.158051 16.416 0.158051 17.632V37.6768L6.18293 42.2656L6.20189 11.1232Z" stroke="black" stroke-width="0.5" stroke-miterlimit="10" stroke-linecap="round" stroke-linejoin="round"/>
<path d="M22.3546 9.1904V44.6912L16.3803 49.2736V40.1152V13.344V4.608L22.3546 9.1904Z" stroke="black" stroke-width="0.5" stroke-miterlimit="10" stroke-linecap="round" stroke-linejoin="round"/>
<path d="M16.3803 4.608L11.6894 8.1536C10.8296 8.8064 10.3238 9.8304 10.3238 10.9184V44.6912L16.3867 49.28V4.608H16.3803Z" stroke="black" stroke-width="0.5" stroke-miterlimit="10" stroke-linecap="round" stroke-linejoin="round"/>
<path d="M30.5543 9.1904V44.6912L36.5286 49.2736V40.1152V13.344V4.608L30.5543 9.1904Z" stroke="black" stroke-width="0.5" stroke-miterlimit="10" stroke-linecap="round" stroke-linejoin="round"/>
<path d="M36.5286 4.608L41.1563 8.1536C42.0098 8.8064 42.5092 9.824 42.5092 10.8992V44.6848L36.5349 49.2736V4.608H36.5286Z" stroke="black" stroke-width="0.5" stroke-miterlimit="10" stroke-linecap="round" stroke-linejoin="round"/>
<path d="M12.1952 15.6992V37.6704L6.13235 42.2592V33.0944V13.5104V11.1232L12.1952 15.6992Z" fill="white" stroke="black" stroke-width="0.5" stroke-miterlimit="10" stroke-linecap="round" stroke-linejoin="round"/>
<path d="M46.6817 11.1232L51.1577 14.5472C52.106 15.2768 52.6687 16.4096 52.6687 17.6192V37.6768L46.6754 42.2656L46.6817 11.1232Z" stroke="black" stroke-width="0.5" stroke-miterlimit="10" stroke-linecap="round" stroke-linejoin="round"/>
<path d="M40.7138 15.6992V37.6704L46.6944 42.2592V33.0944V13.5104V11.1232L40.7138 15.6992Z" fill="white" stroke="black" stroke-width="0.5" stroke-miterlimit="10" stroke-linecap="round" stroke-linejoin="round"/>
<path d="M20.3063 45.6L26.3691 50.1824V41.0176V14.2528L27.368 0L20.3063 2.464V45.6Z" fill="#F3714D"/>
<path d="M27.368 0L26.3754 14.2528V41.0176V50.1824L32.4319 45.6V2.464L27.368 0Z" fill="#F3714D"/>
<path d="M20.3063 2.464V51.4176L26.3691 56V46.8352V20.064V5.0176L20.3063 2.464Z" fill="url(#paint0_linear_281_67)"/>
<path d="M26.3691 5.0176L32.3497 2.464V51.4176L26.3691 56V5.0176Z" fill="url(#paint1_linear_281_67)"/>
<path d="M67.6202 45.3184H69.4663V45.5424H67.6202V46.7968H69.6053V47.0336H67.38V43.8464H69.5484V44.0768H67.6139V45.3184H67.6202Z" fill="black"/>
<path d="M72.9181 43.8464L75.036 46.4832V43.8464H75.2762V47.0336H75.1814L73.0572 44.4032V47.0336H72.8169V43.8464H72.9181Z" fill="black"/>
<path d="M81.1114 44.4352C80.8396 44.16 80.4539 44.0256 80.0999 44.0256C79.1769 44.0256 78.709 44.7104 78.709 45.4464C78.709 46.1952 79.1832 46.8416 80.0999 46.8416C80.4349 46.8416 80.789 46.7264 81.0545 46.4704V45.5808H79.9608V45.3696H81.2884V46.56C80.9597 46.8928 80.5677 47.072 80.0999 47.072C79.0315 47.072 78.4751 46.3168 78.4751 45.4464C78.4688 44.448 79.1389 43.8016 80.0999 43.8016C80.5108 43.8016 80.9344 43.9616 81.2505 44.2816L81.1114 44.4352Z" fill="black"/>
<path d="M84.5379 47.0336V43.8464H84.7782V47.0336H84.5379Z" fill="black"/>
<path d="M88.2806 43.8464L90.3984 46.4832V43.8464H90.6387V47.0336H90.5438L88.4197 44.4032V47.0336H88.1794V43.8464H88.2806Z" fill="black"/>
<path d="M94.2802 45.3184H96.1262V45.5424H94.2802V46.7968H96.2653V47.0336H94.0399V43.8464H96.2084V44.0768H94.2738V45.3184H94.2802Z" fill="black"/>
<path d="M99.7108 45.3184H101.557V45.5424H99.7108V46.7968H101.696V47.0336H99.4705V43.8464H101.639V44.0768H99.7044V45.3184H99.7108Z" fill="black"/>
<path d="M107.417 47.0336H107.101L106.014 45.8304H105.154V47.0336H104.914V43.8464C105.375 43.8464 105.837 43.8464 106.298 43.8464C106.981 43.8464 107.329 44.3456 107.335 44.8384C107.341 45.3568 107 45.8112 106.317 45.8112L107.417 47.0336ZM105.148 45.5936H106.26C106.81 45.5936 107.051 45.28 107.057 44.832C107.063 44.4608 106.81 44.0704 106.286 44.0704H105.141V45.5936H105.148Z" fill="black"/>
<path d="M110.566 47.0336V43.8464H110.806V47.0336H110.566Z" fill="black"/>
<path d="M114.315 43.8464L116.432 46.4832V43.8464H116.673V47.0336H116.578L114.454 44.4032V47.0336H114.213V43.8464H114.315Z" fill="black"/>
<path d="M122.508 44.4352C122.236 44.16 121.85 44.0256 121.496 44.0256C120.573 44.0256 120.106 44.7104 120.106 45.4464C120.106 46.1952 120.58 46.8416 121.496 46.8416C121.831 46.8416 122.185 46.7264 122.451 46.4704V45.5808H121.357V45.3696H122.685V46.56C122.356 46.8928 121.964 47.072 121.496 47.072C120.428 47.072 119.872 46.3168 119.872 45.4464C119.865 44.448 120.535 43.8016 121.496 43.8016C121.907 43.8016 122.331 43.9616 122.647 44.2816L122.508 44.4352Z" fill="black"/>
<path d="M131.637 44.4608C131.409 44.0896 131.036 44.032 130.682 44.0256C130.316 44.0256 129.728 44.16 129.728 44.672C129.728 45.0752 130.158 45.1712 130.689 45.2736C131.296 45.3952 131.928 45.504 131.928 46.1888C131.921 46.9056 131.207 47.0784 130.682 47.0784C130.195 47.0784 129.633 46.8736 129.393 46.3872L129.608 46.2784C129.804 46.6624 130.297 46.8544 130.682 46.8544C131.068 46.8544 131.687 46.7456 131.687 46.1824C131.694 45.7024 131.169 45.6 130.651 45.4976C130.075 45.3824 129.487 45.2672 129.487 44.6784C129.475 44.0064 130.164 43.7952 130.682 43.7952C131.131 43.7952 131.523 43.8656 131.833 44.3392L131.637 44.4608Z" fill="black"/>
<path d="M135.342 45.3184H137.188V45.5424H135.342V46.7968H137.327V47.0336H135.101V43.8464H137.27V44.0768H135.335V45.3184H135.342Z" fill="black"/>
<path d="M143.048 47.0336H142.732L141.645 45.8304H140.785V47.0336H140.545V43.8464C141.006 43.8464 141.468 43.8464 141.929 43.8464C142.612 43.8464 142.96 44.3456 142.966 44.8384C142.972 45.3568 142.631 45.8112 141.948 45.8112L143.048 47.0336ZM140.779 45.5936H141.891C142.441 45.5936 142.681 45.28 142.688 44.832C142.694 44.4608 142.441 44.0704 141.916 44.0704H140.772V45.5936H140.779Z" fill="black"/>
<path d="M148.656 43.8464L147.36 47.04H147.101L145.805 43.8464H146.064L147.227 46.7584L148.39 43.8464H148.656Z" fill="black"/>
<path d="M151.754 47.0336V43.8464H151.994V47.0336H151.754Z" fill="black"/>
<path d="M157.955 46.592C157.639 46.912 157.222 47.072 156.811 47.072C155.749 47.072 155.199 46.3232 155.193 45.4592C155.186 44.608 155.73 43.8144 156.811 43.8144C157.222 43.8144 157.646 43.9744 157.955 44.2944L157.791 44.4416C157.519 44.1664 157.165 44.0384 156.811 44.0384C155.894 44.0384 155.42 44.6912 155.427 45.4592C155.433 46.208 155.901 46.8544 156.811 46.8544C157.165 46.8544 157.526 46.72 157.797 46.4512L157.955 46.592Z" fill="black"/>
<path d="M161.357 45.3184H163.196V45.5424H161.357V46.7968H163.342V47.0336H161.116V43.8464H163.285V44.0768H161.35V45.3184H161.357Z" fill="black"/>
<path d="M168.494 44.4608C168.267 44.0896 167.894 44.032 167.54 44.0256C167.173 44.0256 166.585 44.16 166.585 44.672C166.585 45.0752 167.015 45.1712 167.546 45.2736C168.153 45.3952 168.785 45.504 168.785 46.1888C168.779 46.9056 168.064 47.0784 167.54 47.0784C167.053 47.0784 166.49 46.8736 166.25 46.3872L166.465 46.2784C166.661 46.6624 167.154 46.8544 167.54 46.8544C167.925 46.8544 168.545 46.7456 168.545 46.1824C168.551 45.7024 168.026 45.6 167.508 45.4976C166.933 45.3824 166.345 45.2672 166.345 44.6784C166.332 44.0064 167.021 43.7952 167.54 43.7952C167.988 43.7952 168.38 43.8656 168.69 44.3392L168.494 44.4608Z" fill="black"/>
<path d="M73.3859 41.2288C69.8519 41.2288 67.3863 39.1488 67.3863 35.4944C67.3863 31.904 69.8519 29.7664 73.3859 29.7664C76.9326 29.7664 79.3855 31.8592 79.3855 35.4944C79.3855 39.1488 76.9326 41.2288 73.3859 41.2288ZM73.3859 32.4032C71.641 32.4032 70.4399 33.6832 70.4399 35.4944C70.4399 37.3248 71.66 38.5856 73.3859 38.5856C75.175 38.5856 76.332 37.3056 76.332 35.4944C76.332 33.6192 75.175 32.4032 73.3859 32.4032Z" fill="black"/>
<path d="M90.999 30.048V36.1536C91.0117 39.3856 89.0708 41.1968 85.9098 41.1968C82.7488 41.1968 80.8206 39.4624 80.8206 36.1216V30.048H83.8615V36.1216C83.8615 37.8368 84.677 38.56 85.9161 38.56C87.1489 38.56 87.9708 37.8112 87.9708 36.1536V30.048H90.999Z" fill="black"/>
<path d="M95.3233 32.576H92.1749V30.0288H101.525V32.576H98.3642V40.96H95.3233V32.576Z" fill="black"/>
<path d="M109.497 33.0624C108.758 32.4992 107.91 32.3136 106.968 32.3136C106.229 32.3136 105.502 32.5504 105.502 33.1264C105.502 33.8752 106.229 33.984 107.291 34.0928C109.434 34.3296 111.672 35.2 111.672 37.7152C111.672 40.1984 109.358 41.2608 106.937 41.2736C104.996 41.2864 103.605 40.9472 102.107 39.3536L103.788 37.4016C104.851 38.4448 106.039 38.6368 106.949 38.6368C107.955 38.6368 108.644 38.2784 108.644 37.6704C108.644 37.1264 108.024 36.7808 106.842 36.672C104.484 36.4544 102.448 35.8464 102.448 33.1264C102.448 30.816 104.686 29.8176 106.968 29.8176C108.587 29.8176 109.851 30.1952 111.008 31.1168L109.497 33.0624Z" fill="black"/>
<path d="M118.525 41.2288C114.991 41.2288 112.525 39.1488 112.525 35.4944C112.525 31.904 114.991 29.7664 118.525 29.7664C122.072 29.7664 124.525 31.8592 124.525 35.4944C124.525 39.1488 122.072 41.2288 118.525 41.2288ZM118.525 32.4032C116.78 32.4032 115.579 33.6832 115.579 35.4944C115.579 37.3248 116.799 38.5856 118.525 38.5856C120.314 38.5856 121.471 37.3056 121.471 35.4944C121.471 33.6192 120.314 32.4032 118.525 32.4032Z" fill="black"/>
<path d="M136.138 30.048V36.1536C136.151 39.3856 134.21 41.1968 131.049 41.1968C127.888 41.1968 125.96 39.4624 125.96 36.1216V30.048H129.001V36.1216C129.001 37.8368 129.816 38.56 131.055 38.56C132.288 38.56 133.11 37.8112 133.11 36.1536V30.048H136.138Z" fill="black"/>
<path d="M148.175 40.96H144.812L142.296 37.4144H141.234V40.96H138.18V30.0288H143.453C146.215 30.0288 147.651 31.8272 147.651 33.792C147.651 35.136 147.189 36.2752 145.368 37.088L148.175 40.7744V40.96ZM141.234 32.4992V35.1232H143.484C144.287 35.1232 144.641 34.5152 144.641 33.856C144.641 33.1712 144.256 32.4992 143.453 32.4992H141.234Z" fill="black"/>
<path d="M159.112 39.5392C157.892 40.7552 156.413 41.2416 154.775 41.2416C150.533 41.2416 148.883 38.5408 148.871 35.5712C148.858 32.7616 150.723 29.7792 154.775 29.7792C156.331 29.7792 157.734 30.3232 158.954 31.5264L157.07 33.4016C156.299 32.6528 155.496 32.448 154.769 32.448C152.689 32.448 151.867 34.1632 151.886 35.584C151.899 37.0048 152.645 38.6112 154.769 38.6112C155.496 38.6112 156.546 38.2976 157.317 37.504L159.112 39.5392Z" fill="black"/>
<path d="M169 40.96H160.364V30.0288H168.785V32.6208H163.373V34.1824H168.482V36.6976H163.373V38.3552H169.006V40.96H169Z" fill="black"/>
<path d="M67.4116 27.488V5.504H73.525V27.488H67.4116Z" fill="black"/>
<path d="M92.3266 17.5296C92.1686 14.8928 92.1686 13.888 92.1433 13.0368V5.504H98.3199V27.488H93.1043L84.0448 15.648L84.1396 20.4544V27.488H77.9314V5.504H83.1471L92.3266 17.5296Z" fill="black"/>
<path d="M102.72 27.488V5.504H119.385V10.72H108.802V14.8352H118.734V19.9232H108.802V27.4944H102.72V27.488Z" fill="black"/>
<path d="M142.719 27.488H135.955L130.897 20.3584H128.754V27.488H122.609V5.504H133.224C138.781 5.504 141.664 9.1136 141.664 13.0752C141.664 15.776 140.734 18.0672 137.074 19.7056L142.719 27.1168V27.488ZM128.76 10.464V15.744H133.293C134.905 15.744 135.62 14.5216 135.62 13.1968C135.62 11.8144 134.842 10.464 133.23 10.464H128.76Z" fill="black"/>
<path d="M155.629 11.6608L160.472 23.8784L161.9 27.488H168.475L158.765 5.504H152.563L142.814 27.488H149.332" fill="black"/>
</g>
<defs>
<linearGradient id="paint0_linear_281_67" x1="23.3395" y1="56.0003" x2="23.3395" y2="2.46483" gradientUnits="userSpaceOnUse">
<stop stop-color="#5B0B0C"/>
<stop offset="1" stop-color="#CD2027"/>
</linearGradient>
<linearGradient id="paint1_linear_281_67" x1="29.359" y1="56.0003" x2="29.359" y2="2.46483" gradientUnits="userSpaceOnUse">
<stop stop-color="#A61E22"/>
<stop offset="0.6582" stop-color="#F04F3F"/>
<stop offset="1" stop-color="#F68D5A"/>
</linearGradient>
<clipPath id="clip0_281_67">
<rect width="169" height="56" fill="white"/>
</clipPath>
</defs>
</svg>
