<svg width="80" height="80" viewBox="0 0 80 80" fill="none" xmlns="http://www.w3.org/2000/svg">
<path d="M69.6117 22.9567L69.515 57.0417L40.0483 74.1667L40.145 40.0817L69.6117 22.9567Z" stroke="url(#paint0_linear_235_1686)" stroke-width="2" stroke-linecap="round" stroke-linejoin="round"/>
<path d="M20.6333 62.9666L40.05 74.1666L40.1166 53.4833L40.15 40.0833L27.6666 32.8833L10.4833 22.95L10.3833 57.0499L15.45 59.9833" stroke="url(#paint1_linear_235_1686)" stroke-width="2" stroke-linecap="round" stroke-linejoin="round"/>
<path d="M69.6115 22.9567L40.1449 40.0817L10.4849 22.9584L39.9515 5.83337L69.6115 22.9567Z" stroke="url(#paint2_linear_235_1686)" stroke-width="2" stroke-linecap="round" stroke-linejoin="round"/>
<path d="M40.0485 53.49C47.7925 53.49 54.0702 47.2123 54.0702 39.4683C54.0702 31.7244 47.7925 25.4467 40.0485 25.4467C32.3046 25.4467 26.0269 31.7244 26.0269 39.4683C26.0269 47.2123 32.3046 53.49 40.0485 53.49Z" stroke="url(#paint3_linear_235_1686)" stroke-width="2" stroke-linecap="round" stroke-linejoin="round"/>
<path d="M28.5015 51.015L30.1332 49.3833M28.5015 51.015V55.0966L18.0965 65.5016L14.0132 61.42L24.4182 51.015H28.5015Z" stroke="url(#paint4_linear_235_1686)" stroke-width="2" stroke-linecap="round" stroke-linejoin="round"/>
<defs>
<linearGradient id="paint0_linear_235_1686" x1="69.6117" y1="48.5617" x2="40.0483" y2="48.5617" gradientUnits="userSpaceOnUse">
<stop stop-color="#FF682C"/>
<stop offset="1" stop-color="#C1302B"/>
</linearGradient>
<linearGradient id="paint1_linear_235_1686" x1="40.15" y1="48.5583" x2="10.3833" y2="48.5583" gradientUnits="userSpaceOnUse">
<stop stop-color="#FF682C"/>
<stop offset="1" stop-color="#C1302B"/>
</linearGradient>
<linearGradient id="paint2_linear_235_1686" x1="69.6115" y1="22.9575" x2="10.4849" y2="22.9575" gradientUnits="userSpaceOnUse">
<stop stop-color="#FF682C"/>
<stop offset="1" stop-color="#C1302B"/>
</linearGradient>
<linearGradient id="paint3_linear_235_1686" x1="54.0702" y1="39.4683" x2="26.0269" y2="39.4683" gradientUnits="userSpaceOnUse">
<stop stop-color="#FF682C"/>
<stop offset="1" stop-color="#C1302B"/>
</linearGradient>
<linearGradient id="paint4_linear_235_1686" x1="30.1332" y1="57.4425" x2="14.0132" y2="57.4425" gradientUnits="userSpaceOnUse">
<stop stop-color="#FF682C"/>
<stop offset="1" stop-color="#C1302B"/>
</linearGradient>
</defs>
</svg>
