<svg width="56" height="56" viewBox="0 0 56 56" fill="none" xmlns="http://www.w3.org/2000/svg">
<g clip-path="url(#clip0_135_306)">
<mask id="mask0_135_306" style="mask-type:luminance" maskUnits="userSpaceOnUse" x="0" y="0" width="56" height="56">
<path d="M0 0H56V56H0V0Z" fill="white"/>
</mask>
<g mask="url(#mask0_135_306)">
<path fill-rule="evenodd" clip-rule="evenodd" d="M12.5615 33.845C10.474 33.3281 8.61969 32.1269 7.29449 30.4331C5.96928 28.7394 5.24951 26.6506 5.25 24.5V23.625C5.25 21.0723 6.26406 18.6241 8.0691 16.8191C9.87414 15.0141 12.3223 14 14.875 14H15.75C18.2469 13.9978 20.6467 14.9669 22.4417 16.7025C24.2368 18.4381 25.2862 20.804 25.368 23.2995V23.31H25.375V24.5C25.375 24.9597 25.3435 25.41 25.2805 25.851C25.2105 26.7657 25.1055 27.664 24.9655 28.546C24.5964 30.8566 23.9391 33.1119 23.009 35.259C21.3414 39.1054 18.7405 42.475 15.442 45.0625L15.099 45.3285C14.954 45.4388 14.7772 45.499 14.595 45.5C14.4444 45.4994 14.2965 45.46 14.1656 45.3855C14.0347 45.3111 13.9252 45.2041 13.8478 45.0749C13.7703 44.9457 13.7276 44.7987 13.7236 44.6482C13.7196 44.4976 13.7545 44.3486 13.825 44.2155C14.6556 42.6358 15.4147 41.0195 16.1 39.3715C16.7895 37.7125 17.486 35.826 18.0495 33.8485C17.2972 34.0346 16.5249 34.1275 15.75 34.125H14.875C14.0747 34.1227 13.3035 34.0293 12.5615 33.845ZM10.64 38.7625C7.56615 37.8496 4.86959 35.9678 2.95222 33.3976C1.03485 30.8275 -0.000668581 27.7066 3.23861e-07 24.5V23.625C3.23861e-07 19.6799 1.56718 15.8964 4.35679 13.1068C7.14639 10.3172 10.9299 8.75 14.875 8.75H15.75C20.832 8.75 25.3155 11.298 28 15.183C29.3679 13.1985 31.1976 11.5761 33.3315 10.4555C35.4654 9.33486 37.8397 8.74958 40.25 8.75H41.125C45.0185 8.7492 48.7571 10.275 51.5382 12.9998C54.3193 15.7247 55.9212 19.4313 56 23.324V24.5C56 25.1417 55.9592 25.7752 55.8775 26.4005C55.153 35.5705 51.1245 43.7815 43.6695 49.497C42.6074 50.3095 41.3073 50.7498 39.97 50.75C35.2765 50.75 32.459 45.7625 34.552 41.776C34.9405 41.0375 35.462 39.998 36.015 38.766C33.2901 37.9546 30.8548 36.3792 28.9975 34.2265C27.1019 40.3045 23.3611 45.6416 18.2945 49.497C17.2324 50.3095 15.9323 50.7498 14.595 50.75C9.9015 50.75 7.084 45.7625 9.177 41.776C9.5655 41.0375 10.087 39.998 10.64 38.766M37.94 33.845C38.682 34.0293 39.4532 34.1227 40.2535 34.125H41.1285C41.9032 34.1241 42.6751 34.0312 43.428 33.8485C42.7901 36.0779 41.9948 38.2592 41.048 40.376C40.4766 41.6763 39.8614 42.9568 39.2035 44.2155C39.133 44.3486 39.0981 44.4976 39.1021 44.6482C39.1061 44.7987 39.1488 44.9457 39.2263 45.0749C39.3037 45.2041 39.4132 45.3111 39.5441 45.3855C39.675 45.46 39.8229 45.4994 39.9735 45.5C40.1557 45.499 40.3325 45.4388 40.4775 45.3285L40.8205 45.0625C41.8752 44.2272 42.8458 43.3312 43.7325 42.3745C45.7984 40.1539 47.4465 37.5786 48.5975 34.7725C49.417 32.7713 50.0019 30.6818 50.3405 28.546C50.4853 27.6527 50.5916 26.7535 50.659 25.851C50.722 25.4077 50.7535 24.9573 50.7535 24.5V23.3135H50.75V23.2995C50.6682 20.8027 49.6178 18.4359 47.8212 16.7001C46.0247 14.9643 43.6231 13.9959 41.125 14H40.2465C37.6938 14 35.2456 15.0141 33.4406 16.8191C31.6356 18.6241 30.6215 21.0723 30.6215 23.625V24.5C30.6215 29.015 33.7365 32.809 37.933 33.845" fill="white"/>
</g>
</g>
<defs>
<clipPath id="clip0_135_306">
<rect width="56" height="56" fill="white"/>
</clipPath>
</defs>
</svg>
