<svg width="62" height="62" viewBox="0 0 62 62" fill="none" xmlns="http://www.w3.org/2000/svg">
<path d="M37.3197 31.6871L23.2297 51.1101C23.1642 51.2003 23.0865 51.2719 23.001 51.3207C22.9155 51.3696 22.8238 51.3947 22.7313 51.3947C22.6387 51.3947 22.547 51.3696 22.4615 51.3207C22.376 51.2719 22.2983 51.2003 22.2328 51.1101C22.1674 51.0199 22.1154 50.9127 22.08 50.7949C22.0446 50.677 22.0264 50.5506 22.0264 50.423C22.0264 50.2954 22.0446 50.169 22.08 50.0512C22.1154 49.9333 22.1674 49.8261 22.2328 49.7359L35.8244 31L22.2328 12.264C22.1006 12.0818 22.0264 11.8346 22.0264 11.5769C22.0264 11.3192 22.1006 11.0721 22.2328 10.8898C22.365 10.7076 22.5443 10.6052 22.7313 10.6052C22.9182 10.6052 23.0975 10.7076 23.2297 10.8898L37.3197 30.3129C37.3852 30.4031 37.4372 30.5102 37.4727 30.6281C37.5081 30.746 37.5264 30.8723 37.5264 31C37.5264 31.1276 37.5081 31.254 37.4727 31.3719C37.4372 31.4898 37.3852 31.5969 37.3197 31.6871Z" fill="#D2D2D2"/>
</svg>
