<svg width="80" height="80" viewBox="0 0 80 80" fill="none" xmlns="http://www.w3.org/2000/svg">
<path d="M8.3335 27.29C8.68016 20.29 9.71683 15.9234 12.8235 12.8234C15.9235 9.71671 20.2902 8.68004 27.2902 8.33337M71.6668 27.29C71.3202 20.29 70.2835 15.9234 67.1768 12.8234C64.0768 9.71671 59.7102 8.68004 52.7102 8.33337M52.7102 71.6667C59.7102 71.32 64.0768 70.2834 67.1768 67.1767C70.2835 64.0767 71.3202 59.71 71.6668 52.71M27.2902 71.6667C20.2902 71.32 15.9235 70.2834 12.8235 67.1767C9.71683 64.0767 8.68016 59.71 8.3335 52.71M65.4502 37.7267C66.2602 38.74 66.6668 39.25 66.6668 40C66.6668 40.75 66.2602 41.26 65.4502 42.2734C61.8068 46.8334 52.5035 56.6667 40.0002 56.6667C27.4968 56.6667 18.1935 46.8334 14.5502 42.2734C13.7402 41.26 13.3335 40.75 13.3335 40C13.3335 39.25 13.7402 38.74 14.5502 37.7267C18.1935 33.1667 27.4968 23.3334 40.0002 23.3334C52.5035 23.3334 61.8068 33.1667 65.4502 37.7267Z" stroke="url(#paint0_linear_235_1695)" stroke-width="3" stroke-linecap="round" stroke-linejoin="round"/>
<path d="M46.6668 40C46.6668 38.2319 45.9644 36.5362 44.7142 35.286C43.464 34.0358 41.7683 33.3334 40.0002 33.3334C38.2321 33.3334 36.5364 34.0358 35.2861 35.286C34.0359 36.5362 33.3335 38.2319 33.3335 40C33.3335 41.7682 34.0359 43.4638 35.2861 44.7141C36.5364 45.9643 38.2321 46.6667 40.0002 46.6667C41.7683 46.6667 43.464 45.9643 44.7142 44.7141C45.9644 43.4638 46.6668 41.7682 46.6668 40Z" stroke="url(#paint1_linear_235_1695)" stroke-width="3" stroke-linecap="round" stroke-linejoin="round"/>
<defs>
<linearGradient id="paint0_linear_235_1695" x1="71.6668" y1="40" x2="8.3335" y2="40" gradientUnits="userSpaceOnUse">
<stop stop-color="#FF682C"/>
<stop offset="1" stop-color="#C1302B"/>
</linearGradient>
<linearGradient id="paint1_linear_235_1695" x1="46.6668" y1="40" x2="33.3335" y2="40" gradientUnits="userSpaceOnUse">
<stop stop-color="#FF682C"/>
<stop offset="1" stop-color="#C1302B"/>
</linearGradient>
</defs>
</svg>
