<svg width="347" height="203" viewBox="0 0 347 203" fill="none" xmlns="http://www.w3.org/2000/svg">
<path d="M270.069 203H38.0168C17.0661 203 0 187.847 0 169.245V33.7547C0 15.1528 17.0661 0 38.0168 0H88.4181C89.547 0 90.4435 0.795963 90.4435 1.79829C90.4435 2.80061 89.547 3.59657 88.4181 3.59657H38.0168C19.2906 3.59657 4.0507 17.1279 4.0507 33.7547V169.245C4.0507 185.872 19.2906 199.403 38.0168 199.403H270.069C288.795 199.403 304.035 185.872 304.035 169.245V118.893C304.035 117.891 304.931 117.095 306.06 117.095H344.584C345.713 117.095 346.609 117.891 346.609 118.893C346.609 119.896 345.713 120.692 344.584 120.692H308.119V169.245C308.119 187.847 291.053 203 270.069 203Z" fill="#FF682C"/>
</svg>
