<svg width="45" height="45" viewBox="0 0 45 45" fill="none" xmlns="http://www.w3.org/2000/svg">
<g clip-path="url(#clip0_239_2615)">
<path d="M19.0723 32.102C20.0244 32.5854 20.8813 33.1787 21.6431 33.8818C22.4048 34.5849 23.064 35.3759 23.6206 36.2548C24.1772 37.1337 24.5947 38.0712 24.873 39.0673C25.1514 40.0634 25.2979 41.1035 25.3125 42.1875H22.5C22.5 41.0302 22.2803 39.9389 21.8408 38.9135C21.4014 37.8881 20.8008 36.9946 20.0391 36.2329C19.2773 35.4711 18.3765 34.8632 17.3364 34.4091C16.2964 33.955 15.2051 33.7353 14.0625 33.75C12.8906 33.75 11.7993 33.9697 10.7886 34.4091C9.77783 34.8486 8.88428 35.4492 8.10791 36.2109C7.33154 36.9726 6.72363 37.8735 6.28418 38.9135C5.84473 39.9536 5.625 41.0449 5.625 42.1875H2.8125C2.8125 41.1181 2.95898 40.0854 3.25195 39.0893C3.54492 38.0932 3.9624 37.1557 4.50439 36.2768C5.04639 35.3979 5.69824 34.6069 6.45996 33.9038C7.22168 33.2006 8.08594 32.6001 9.05273 32.102C7.96875 31.2963 7.12646 30.3002 6.52588 29.1137C5.92529 27.9272 5.625 26.6601 5.625 25.3125C5.625 24.1552 5.84473 23.0639 6.28418 22.0385C6.72363 21.0131 7.32422 20.1196 8.08594 19.3579C8.84766 18.5961 9.74121 17.9882 10.7666 17.5341C11.792 17.08 12.8906 16.8603 14.0625 16.875C15.4102 16.875 16.6772 17.1752 17.8638 17.7758C19.0503 18.3764 20.0464 19.2187 20.8521 20.3027C21.4087 19.2041 22.1191 18.2226 22.9834 17.3584C23.8477 16.4941 24.8291 15.7836 25.9277 15.227C24.8438 14.4213 24.0015 13.4252 23.4009 12.2387C22.8003 11.0522 22.5 9.78511 22.5 8.43745C22.5 7.28023 22.7197 6.18892 23.1592 5.16353C23.5986 4.13814 24.1992 3.24458 24.9609 2.48286C25.7227 1.72115 26.6162 1.11324 27.6416 0.659134C28.667 0.205032 29.7656 -0.0146942 30.9375 -4.57764e-05C32.0947 -4.57764e-05 33.186 0.219681 34.2114 0.659134C35.2368 1.09859 36.1304 1.69917 36.8921 2.46089C37.6538 3.22261 38.2617 4.12349 38.7158 5.16353C39.1699 6.20357 39.3896 7.29488 39.375 8.43745C39.375 9.78511 39.0747 11.0522 38.4741 12.2387C37.8735 13.4252 37.0312 14.4213 35.9473 15.227C36.8994 15.7104 37.7563 16.3037 38.5181 17.0068C39.2798 17.7099 39.939 18.5009 40.4956 19.3798C41.0522 20.2587 41.4697 21.1962 41.748 22.1923C42.0264 23.1884 42.1729 24.2285 42.1875 25.3125H39.375C39.375 24.1552 39.1553 23.0639 38.7158 22.0385C38.2764 21.0131 37.6758 20.1196 36.9141 19.3579C36.1523 18.5961 35.2515 17.9882 34.2114 17.5341C33.1714 17.08 32.0801 16.8603 30.9375 16.875C29.7656 16.875 28.6743 17.0947 27.6636 17.5341C26.6528 17.9736 25.7593 18.5742 24.9829 19.3359C24.2065 20.0976 23.5986 20.9985 23.1592 22.0385C22.7197 23.0786 22.5 24.1699 22.5 25.3125C22.5 26.6601 22.1997 27.9272 21.5991 29.1137C20.9985 30.3002 20.1562 31.2963 19.0723 32.102ZM25.3125 8.43745C25.3125 9.21382 25.459 9.93892 25.752 10.6127C26.0449 11.2866 26.4478 11.8872 26.9604 12.4145C27.4731 12.9418 28.0664 13.3447 28.7402 13.623C29.4141 13.9013 30.1465 14.0478 30.9375 14.0625C31.7139 14.0625 32.439 13.916 33.1128 13.623C33.7866 13.33 34.3872 12.9272 34.9146 12.4145C35.4419 11.9018 35.8447 11.3085 36.123 10.6347C36.4014 9.96089 36.5479 9.22847 36.5625 8.43745C36.5625 7.66109 36.416 6.93599 36.123 6.26216C35.8301 5.58833 35.4272 4.98775 34.9146 4.4604C34.4019 3.93306 33.8086 3.53023 33.1348 3.25191C32.4609 2.97359 31.7285 2.8271 30.9375 2.81245C30.1611 2.81245 29.436 2.95894 28.7622 3.25191C28.0884 3.54488 27.4878 3.94771 26.9604 4.4604C26.4331 4.9731 26.0303 5.56636 25.752 6.24019C25.4736 6.91402 25.3271 7.64644 25.3125 8.43745ZM8.4375 25.3125C8.4375 26.0888 8.58398 26.8139 8.87695 27.4877C9.16992 28.1616 9.57275 28.7622 10.0854 29.2895C10.5981 29.8168 11.1914 30.2197 11.8652 30.498C12.5391 30.7763 13.2715 30.9228 14.0625 30.9375C14.8389 30.9375 15.564 30.791 16.2378 30.498C16.9116 30.205 17.5122 29.8022 18.0396 29.2895C18.5669 28.7768 18.9697 28.1835 19.248 27.5097C19.5264 26.8359 19.6729 26.1035 19.6875 25.3125C19.6875 24.5361 19.541 23.811 19.248 23.1372C18.9551 22.4633 18.5522 21.8627 18.0396 21.3354C17.5269 20.8081 16.9336 20.4052 16.2598 20.1269C15.5859 19.8486 14.8535 19.7021 14.0625 19.6875C13.2861 19.6875 12.561 19.8339 11.8872 20.1269C11.2134 20.4199 10.6128 20.8227 10.0854 21.3354C9.55811 21.8481 9.15527 22.4414 8.87695 23.1152C8.59863 23.789 8.45215 24.5214 8.4375 25.3125ZM41.4844 45L35.1562 40.0561L28.8281 45L31.377 37.0898L25.3125 32.3437H32.8931L35.1562 25.3125L37.4194 32.3437H45L38.9355 37.0898L41.4844 45Z" fill="url(#paint0_linear_239_2615)"/>
</g>
<defs>
<linearGradient id="paint0_linear_239_2615" x1="45" y1="22.4996" x2="2.8125" y2="22.4996" gradientUnits="userSpaceOnUse">
<stop stop-color="#FF682C"/>
<stop offset="1" stop-color="#C1302B"/>
</linearGradient>
<clipPath id="clip0_239_2615">
<rect width="45" height="45" fill="white"/>
</clipPath>
</defs>
</svg>
